<?xml version="1.0" standalone="no"?>
<!DOCTYPE svg PUBLIC "-//W3C//DTD SVG 20010904//EN"
 "http://www.w3.org/TR/2001/REC-SVG-20010904/DTD/svg10.dtd">
<svg version="1.0" xmlns="http://www.w3.org/2000/svg"
 width="282.000000pt" height="238.000000pt" viewBox="0 0 282.000000 238.000000"
 preserveAspectRatio="xMidYMid meet">

<g transform="translate(0.000000,238.000000) scale(0.100000,-0.100000)"
fill="#000000" stroke="none">
<path d="M732 2108 c-11 -13 -35 -54 -53 -91 -27 -58 -31 -76 -26 -117 3 -27
15 -67 27 -90 20 -39 20 -60 -1 -60 -5 0 -33 18 -62 39 -104 79 -191 99 -273
65 -107 -44 -100 -93 24 -158 48 -25 64 -28 153 -28 54 0 99 -1 99 -2 0 -2 -9
-38 -20 -80 -11 -43 -26 -146 -35 -229 -8 -84 -22 -199 -30 -256 -24 -181 5
-261 96 -261 18 0 72 -18 120 -41 85 -39 89 -40 118 -24 17 8 41 29 53 45 12
17 25 30 29 30 3 0 9 -39 11 -87 4 -63 16 -123 42 -208 37 -119 40 -143 33
-290 -2 -37 0 -40 27 -43 18 -2 30 -11 33 -23 6 -22 59 -26 111 -8 27 9 31 16
34 57 3 26 21 92 41 148 26 72 39 126 43 187 4 48 11 87 15 87 5 0 24 -8 44
-17 37 -18 42 -33 25 -78 -10 -26 -6 -32 44 -68 18 -13 18 -15 3 -38 -24 -33
-21 -54 10 -79 27 -21 28 -21 43 -2 8 11 20 27 25 37 9 15 15 16 54 4 52 -15
58 -27 38 -77 -8 -21 -18 -59 -22 -85 -6 -40 -5 -46 8 -41 8 3 18 1 22 -5 8
-13 74 -14 94 -2 12 8 13 16 3 49 -7 22 -12 41 -12 43 0 3 17 3 38 1 57 -4 68
7 55 63 -11 47 -11 47 28 86 22 22 39 34 39 28 0 -6 -11 -50 -25 -98 -48 -160
-57 -193 -53 -195 2 -1 34 0 71 2 l68 4 -6 39 c-13 76 36 196 115 284 48 53
64 95 40 110 -15 9 -12 45 4 51 24 9 84 106 98 157 7 26 15 47 19 47 4 0 10
-26 13 -57 4 -32 12 -84 18 -116 10 -51 9 -59 -7 -71 -15 -11 -16 -18 -7 -47
6 -19 14 -52 17 -74 4 -22 10 -33 12 -25 14 45 14 45 23 31 6 -11 12 -6 24 18
20 38 12 97 -14 111 -21 11 -33 64 -50 206 -5 51 -16 109 -24 130 -7 22 -26
93 -41 159 -34 150 -45 170 -100 197 l-43 21 -34 -34 c-32 -34 -37 -36 -165
-54 -206 -28 -334 -11 -583 78 l-95 33 3 35 c4 43 42 178 53 185 4 2 29 -7 55
-21 80 -43 202 -31 277 27 18 13 16 17 -27 65 -62 69 -127 97 -204 87 -31 -3
-70 -13 -85 -21 -23 -12 -33 -12 -56 -2 -25 11 -29 19 -35 72 -3 33 -6 81 -6
106 0 54 -17 121 -30 121 -17 0 -37 -53 -55 -140 -9 -47 -21 -92 -25 -101 -7
-13 -29 -15 -122 -15 l-113 1 -22 55 c-26 63 -28 127 -9 218 7 34 10 62 7 62
-4 0 -17 -10 -29 -22z m11 -271 c18 -41 10 -53 -21 -32 -27 20 -41 133 -21
173 12 26 13 24 20 -38 4 -36 14 -82 22 -103z m350 6 c4 -40 2 -60 -6 -65 -15
-10 -19 -10 -36 1 -11 7 -12 15 -3 38 6 15 13 40 16 56 10 44 23 31 29 -30z
m-555 -39 c49 -20 38 -34 -15 -18 -25 8 -68 14 -95 14 -26 0 -48 4 -48 9 0 23
98 19 158 -5z m-74 -45 c105 -13 136 -23 136 -44 0 -26 -124 -20 -187 10 -29
13 -53 29 -53 35 0 12 -5 12 104 -1z m634 -32 c84 -18 89 -24 63 -83 -35 -78
-60 -192 -77 -350 -8 -82 -22 -176 -30 -209 -16 -63 -76 -165 -97 -165 -6 0
-28 17 -47 37 -53 55 -126 84 -227 91 l-85 5 6 51 c13 106 47 343 58 401 6 33
14 82 19 109 10 58 26 77 93 112 48 24 57 25 156 20 58 -3 133 -11 168 -19z
m282 3 c11 -7 -4 -10 -48 -10 -40 0 -61 4 -57 10 8 13 85 13 105 0z m-12 -61
c59 -12 111 -25 115 -29 5 -4 -13 -15 -40 -24 -46 -15 -52 -15 -104 3 -47 16
-107 40 -118 47 -8 6 11 24 25 24 8 0 63 -10 122 -21z m-100 -354 c47 -14 93
-25 102 -25 8 0 25 -15 38 -34 23 -33 23 -35 7 -66 -9 -18 -19 -56 -22 -85 -6
-56 -5 -58 57 -98 26 -17 47 -46 80 -116 25 -51 54 -97 64 -103 10 -6 37 -7
62 -3 24 3 47 6 51 5 9 -1 45 -101 39 -107 -8 -8 -290 -20 -315 -13 -34 10
-91 39 -91 46 0 4 7 33 15 66 18 68 17 189 -2 195 -18 6 -46 -55 -40 -87 3
-15 2 -56 -4 -91 -5 -35 -16 -127 -23 -205 -11 -108 -21 -155 -42 -205 -15
-35 -30 -84 -33 -109 -6 -41 -8 -45 -37 -48 -52 -5 -60 17 -35 93 22 69 28
182 12 261 -4 22 -3 91 2 153 9 97 8 114 -5 128 -19 18 -38 10 -38 -18 0 -30
-13 -23 -43 23 -33 52 -33 59 -2 106 29 44 60 160 77 284 9 69 15 88 26 83 7
-3 52 -16 100 -30z m851 -275 c17 -50 22 -81 18 -112 -10 -71 -48 -158 -89
-200 -38 -40 -50 -78 -24 -78 16 0 46 -37 46 -57 0 -7 -18 -22 -39 -32 -35
-18 -43 -30 -70 -101 -17 -44 -36 -110 -43 -145 -12 -66 -21 -75 -61 -59 -16
6 -16 8 19 133 31 109 30 133 -5 173 -44 51 -70 108 -86 191 -20 107 -10 126
45 86 40 -30 138 -24 176 12 56 53 80 141 49 183 -12 16 -11 22 7 47 12 16 24
29 28 29 3 0 16 -31 29 -70z m-302 -459 c29 -40 30 -46 18 -74 -15 -37 -41
-51 -32 -18 6 24 -14 29 -32 7 -11 -13 -10 -42 5 -113 3 -16 0 -23 -12 -23
-13 0 -15 7 -9 40 5 27 3 46 -5 55 -16 19 -30 19 -30 0 0 -16 -51 -20 -107 -9
-25 5 -29 10 -25 30 4 20 1 23 -14 18 -29 -11 -51 -33 -64 -65 -12 -29 -33
-38 -45 -19 -6 10 31 72 47 78 5 2 5 9 1 15 -4 7 0 8 11 4 9 -4 14 -3 11 2 -7
12 1 16 40 25 19 4 25 3 16 -3 -11 -7 -10 -12 7 -29 11 -11 19 -22 17 -24 -2
-2 9 -5 26 -6 19 -2 32 3 35 13 4 8 15 15 26 15 11 0 22 8 25 20 3 11 13 20
22 20 12 0 13 -2 3 -9 -11 -7 -11 -9 1 -14 9 -3 18 1 22 10 4 13 8 14 17 5 7
-7 17 -12 22 -12 6 0 5 5 -1 11 -6 6 -9 18 -6 25 4 10 0 12 -13 7 -17 -6 -18
-5 -4 12 13 17 13 18 -1 13 -9 -4 -21 -2 -26 3 -5 5 -56 11 -112 12 -94 2
-102 1 -97 -16 2 -11 0 -17 -7 -14 -6 2 -14 14 -18 28 -4 13 -7 18 -8 10 -1
-7 -7 -11 -16 -7 -17 6 -21 -9 -5 -19 6 -4 7 -11 4 -17 -4 -6 -2 -8 3 -5 6 4
13 -4 16 -18 4 -24 3 -25 -13 -10 -10 9 -24 13 -34 9 -14 -6 -16 -2 -11 22 15
67 2 62 169 61 l153 -2 30 -44z m-275 -43 c-7 -7 -12 -8 -12 -2 0 14 12 26 19
19 2 -3 -1 -11 -7 -17z m165 -14 c-3 -3 -12 -4 -19 -1 -8 3 -5 6 6 6 11 1 17
-2 13 -5z"/>
<path d="M767 1554 c-10 -10 -9 -42 2 -48 18 -11 42 6 39 28 -3 21 -28 33 -41
20z"/>
<path d="M955 1444 c-25 -26 -14 -57 28 -79 l38 -20 20 24 c25 30 24 37 -6 66
-28 29 -57 32 -80 9z"/>
<path d="M1685 480 c-3 -5 1 -10 9 -10 9 0 16 5 16 10 0 6 -4 10 -9 10 -6 0
-13 -4 -16 -10z"/>
</g>
</svg>
