<svg version="1.1" id="Layer_1" xmlns="http://www.w3.org/2000/svg" xmlns:xlink="http://www.w3.org/1999/xlink" x="0px" y="0px"
	 width="100%" viewBox="0 0 282 238" enable-background="new 0 0 282 238" xml:space="preserve">
<path fill="#010101" opacity="1.000000" stroke="none" 
	d="
M199.000000,239.000000 
	C132.666672,239.000000 66.833351,239.000000 1.000018,239.000000 
	C1.000012,159.666687 1.000012,80.333366 1.000006,1.000039 
	C94.999969,1.000026 188.999939,1.000026 282.999939,1.000013 
	C282.999939,80.333298 282.999939,159.666595 282.999969,238.999939 
	C255.166672,239.000000 227.333328,239.000000 199.000000,239.000000 
M146.212646,185.675659 
	C147.872421,185.936584 149.532196,186.197510 151.085144,187.315201 
	C151.019058,187.886780 150.952988,188.458374 150.527618,189.225235 
	C150.306793,189.436218 150.240372,189.688019 150.092896,190.102280 
	C150.092896,190.102280 150.077866,190.366852 149.520416,190.624802 
	C148.547455,192.473801 147.137268,194.238831 146.760269,196.202255 
	C146.521835,197.444016 147.824783,198.981750 148.436386,200.386734 
	C149.503723,199.544571 150.571045,198.702408 151.878937,197.700653 
	C151.878937,197.700653 151.887085,197.412079 152.096649,197.492828 
	C152.096649,197.492828 151.935104,197.324020 152.469467,196.473450 
	C152.593216,196.162323 152.716965,195.851212 153.326340,195.220016 
	C153.632553,194.517563 153.938766,193.815125 154.751862,192.755798 
	C154.852768,192.575485 154.953659,192.395157 155.226212,192.388565 
	C155.226212,192.388565 155.147598,192.074844 155.764130,191.638428 
	C155.931931,191.450729 156.099747,191.263016 156.753403,191.608932 
	C158.495010,192.736252 160.236618,193.863571 162.823441,195.288757 
	C165.192963,195.282227 167.562485,195.275696 170.637772,195.583984 
	C172.057648,195.583984 173.477524,195.583984 174.722733,195.583984 
	C175.024689,198.775421 175.288528,201.564056 175.615128,205.016022 
	C183.166565,201.994415 176.681152,196.620911 178.689545,193.924164 
	C180.743134,193.092484 182.302933,192.460785 184.780594,191.819717 
	C186.610199,191.743393 188.439804,191.667084 190.470535,192.465591 
	C188.728165,199.164200 186.985794,205.862808 185.093262,213.138718 
	C187.757065,213.504272 189.767899,213.780212 190.894562,213.934830 
	C193.437439,205.667343 195.435898,197.957642 198.266144,190.566437 
	C199.394119,187.620697 201.964645,184.828690 204.582321,182.944595 
	C208.604050,180.049988 209.154968,176.472031 204.623611,174.387619 
	C199.992737,172.257431 202.119690,169.962036 203.965286,167.981644 
	C216.581039,154.444473 217.887817,141.614410 209.783859,127.804955 
	C208.217102,129.751846 206.692566,131.646271 205.201874,133.498627 
	C209.409210,140.131149 208.682297,146.940720 202.656479,152.855850 
	C200.767517,154.710114 197.953140,156.017548 195.338013,156.655136 
	C189.593430,158.055664 184.164032,157.080551 179.611511,151.508911 
	C177.052658,159.774994 180.315552,166.250137 180.749390,172.897003 
	C178.855957,172.767090 176.948578,172.735291 175.074615,172.468552 
	C174.037018,172.320862 173.055389,171.779984 172.826599,171.214767 
	C174.438477,170.951828 176.808868,171.699860 175.175522,168.327271 
	C173.866058,165.623444 173.460587,162.481812 172.673828,159.607101 
	C158.955200,160.302094 158.960541,160.299622 152.931213,147.240158 
	C152.304657,145.883041 151.787964,144.385132 150.834076,143.288498 
	C149.024948,141.208633 147.262268,138.623138 144.894745,137.591522 
	C140.036850,135.474762 139.005402,132.025711 140.025604,127.507469 
	C140.606201,124.936111 141.668137,122.461288 142.641724,119.993652 
	C144.096573,116.306198 142.343719,111.269943 138.611664,110.159851 
	C131.331879,107.994492 123.927292,106.248703 116.590553,104.333405 
	C116.368126,104.666992 116.089211,104.916130 116.029129,105.210014 
	C115.897064,105.855919 115.897537,106.527504 115.805832,107.183281 
	C114.014969,119.989304 113.463806,133.121658 105.522285,144.266602 
	C104.875771,145.173889 105.150581,147.274445 105.752106,148.426361 
	C107.151466,151.106064 109.011963,153.544968 111.028381,156.600983 
	C112.054558,154.091385 112.702484,152.506821 113.350410,150.922256 
	C113.878769,150.840988 114.407127,150.759705 114.935486,150.678421 
	C115.543289,152.544083 116.767967,154.446716 116.658707,156.269394 
	C115.952827,168.045898 115.744675,179.748428 116.846405,191.563873 
	C117.363785,197.112396 115.148834,202.919556 114.136292,208.603134 
	C113.963371,209.573792 113.532257,210.497971 113.353355,211.468140 
	C112.725945,214.870483 114.922356,215.976486 117.635605,216.188126 
	C120.219360,216.389664 121.912613,215.589157 122.005211,212.274261 
	C122.085716,209.392380 123.090004,206.479645 124.019493,203.691727 
	C125.329132,199.763565 127.813652,196.038712 128.276840,192.050522 
	C129.961334,177.546387 130.989410,162.966599 132.338074,148.422089 
	C132.487320,146.812454 132.844772,145.105774 133.596954,143.708603 
	C134.113159,142.749771 135.480453,142.249146 136.467316,141.543701 
	C136.947662,142.511368 137.886276,143.505188 137.832809,144.442413 
	C137.521942,149.892822 136.977936,155.329926 135.953415,161.059525 
	C135.897141,161.848282 135.840866,162.637024 135.667587,164.075775 
	C135.508270,164.715927 135.348953,165.356064 134.729950,166.258224 
	C135.063293,166.892700 135.396622,167.527191 136.286957,168.615112 
	C139.821609,170.041916 143.356262,171.468719 146.913422,173.535522 
	C146.962234,174.387833 147.011047,175.240128 146.953171,176.542816 
	C146.953171,176.542816 146.793228,176.977127 146.239410,177.364517 
	C145.065353,179.872055 142.484650,182.302078 146.212646,185.675659 
M55.293301,58.925007 
	C49.484905,56.989216 43.687332,54.159370 37.808689,58.026726 
	C37.773949,58.537621 37.739204,59.048515 37.704460,59.559410 
	C43.779800,60.021919 49.855141,60.484425 56.494427,61.278736 
	C57.091022,61.705055 57.687618,62.131374 58.284214,62.557693 
	C58.494461,62.177826 58.951454,61.526482 58.877514,61.459278 
	C57.938927,60.606190 56.924026,59.837055 55.293301,58.925007 
M103.868401,138.236832 
	C105.265816,132.786804 107.131630,127.407951 107.972748,121.873375 
	C110.485664,105.338249 110.309067,88.286606 117.971474,72.792816 
	C119.817894,69.059242 117.445328,67.378296 114.320679,66.933434 
	C105.941628,65.740532 97.538910,64.473175 89.103752,64.027580 
	C85.478195,63.836060 81.574387,65.175804 78.111496,66.589973 
	C73.814087,68.344940 69.793831,70.695702 69.010834,76.184120 
	C66.949677,90.631615 64.659065,105.046234 62.544395,119.486328 
	C61.864201,124.131073 61.447651,128.814423 60.908058,133.501221 
	C82.738716,134.754883 83.628593,135.682693 97.060860,147.614655 
	C99.225983,144.665619 101.352112,141.769699 103.868401,138.236832 
M148.130295,76.672073 
	C148.746231,76.299530 149.362167,75.926979 149.978104,75.554428 
	C141.070908,73.558891 132.652176,69.256905 123.397690,71.738808 
	C131.102966,75.091171 138.155746,81.454544 148.130295,76.672073 
M60.807838,65.942787 
	C52.947269,64.454521 45.086697,62.966248 37.226128,61.477978 
	C37.116592,62.102688 37.007053,62.727398 36.897518,63.352108 
	C43.336494,68.493698 50.758247,70.320480 58.934525,69.167282 
	C59.803974,69.044647 60.476189,67.523605 60.807838,65.942787 
M70.629425,41.271694 
	C71.213089,46.972000 71.683327,52.689590 72.545341,58.347488 
	C72.637657,58.953373 75.013474,59.211357 76.176720,59.581902 
	C75.028854,53.629833 74.083054,48.340649 72.927994,43.097561 
	C72.724518,42.173916 71.645821,41.443085 70.629425,41.271694 
M110.789810,56.756950 
	C110.463173,53.968071 110.136543,51.179192 109.809906,48.390316 
	C109.297760,48.389793 108.785614,48.389275 108.273460,48.388756 
	C107.098030,52.362762 105.922600,56.336769 104.750961,60.297951 
	C109.560730,62.822830 110.533516,62.365967 110.789810,56.756950 
z"/>
<path fill="#F9F9F9" opacity="1.000000" stroke="none" 
	d="
M103.673325,138.555298 
	C101.352112,141.769699 99.225983,144.665619 97.060860,147.614655 
	C83.628593,135.682693 82.738716,134.754883 60.908058,133.501221 
	C61.447651,128.814423 61.864201,124.131073 62.544395,119.486328 
	C64.659065,105.046234 66.949677,90.631615 69.010834,76.184120 
	C69.793831,70.695702 73.814087,68.344940 78.111496,66.589973 
	C81.574387,65.175804 85.478195,63.836060 89.103752,64.027580 
	C97.538910,64.473175 105.941628,65.740532 114.320679,66.933434 
	C117.445328,67.378296 119.817894,69.059242 117.971474,72.792816 
	C110.309067,88.286606 110.485664,105.338249 107.972748,121.873375 
	C107.131630,127.407951 105.265816,132.786804 103.673325,138.555298 
M98.212799,102.277855 
	C100.518028,103.590431 102.820145,105.213066 105.250130,102.511131 
	C107.628967,99.866066 107.121880,97.447395 104.553596,95.309120 
	C102.002663,93.185265 99.152603,91.493149 96.308380,94.522812 
	C93.767342,97.229538 94.378998,99.897652 98.212799,102.277855 
M82.251282,85.490562 
	C81.424706,82.492271 79.274055,82.488503 77.345528,83.884888 
	C76.693207,84.357193 76.675789,87.102318 77.370438,87.777184 
	C79.454285,89.801674 81.231430,88.864410 82.251282,85.490562 
z"/>
<path fill="#F6F6F6" opacity="1.000000" stroke="none" 
	d="
M136.512726,160.771530 
	C136.977936,155.329926 137.521942,149.892822 137.832809,144.442413 
	C137.886276,143.505188 136.947662,142.511368 136.467316,141.543701 
	C135.480453,142.249146 134.113159,142.749771 133.596954,143.708603 
	C132.844772,145.105774 132.487320,146.812454 132.338074,148.422089 
	C130.989410,162.966599 129.961334,177.546387 128.276840,192.050522 
	C127.813652,196.038712 125.329132,199.763565 124.019493,203.691727 
	C123.090004,206.479645 122.085716,209.392380 122.005211,212.274261 
	C121.912613,215.589157 120.219360,216.389664 117.635605,216.188126 
	C114.922356,215.976486 112.725945,214.870483 113.353355,211.468140 
	C113.532257,210.497971 113.963371,209.573792 114.136292,208.603134 
	C115.148834,202.919556 117.363785,197.112396 116.846405,191.563873 
	C115.744675,179.748428 115.952827,168.045898 116.658707,156.269394 
	C116.767967,154.446716 115.543289,152.544083 114.935486,150.678421 
	C114.407127,150.759705 113.878769,150.840988 113.350410,150.922256 
	C112.702484,152.506821 112.054558,154.091385 111.028381,156.600983 
	C109.011963,153.544968 107.151466,151.106064 105.752106,148.426361 
	C105.150581,147.274445 104.875771,145.173889 105.522285,144.266602 
	C113.463806,133.121658 114.014969,119.989304 115.805832,107.183281 
	C115.897537,106.527504 115.897064,105.855919 116.029129,105.210014 
	C116.089211,104.916130 116.368126,104.666992 116.590553,104.333405 
	C123.927292,106.248703 131.331879,107.994492 138.611664,110.159851 
	C142.343719,111.269943 144.096573,116.306198 142.641724,119.993652 
	C141.668137,122.461288 140.606201,124.936111 140.025604,127.507469 
	C139.005402,132.025711 140.036850,135.474762 144.894745,137.591522 
	C147.262268,138.623138 149.024948,141.208633 150.834076,143.288498 
	C151.787964,144.385132 152.304657,145.883041 152.931213,147.240158 
	C158.960541,160.299622 158.955200,160.302094 172.673828,159.607101 
	C173.460587,162.481812 173.866058,165.623444 175.175522,168.327271 
	C176.808868,171.699860 174.438477,170.951828 172.032516,171.213501 
	C163.122589,171.773331 155.006760,172.334427 146.890915,172.895523 
	C143.356262,171.468719 139.821609,170.041916 136.008575,168.102737 
	C135.550003,167.058975 135.369827,166.527603 135.189651,165.996216 
	C135.348953,165.356064 135.508270,164.715927 135.973663,163.574631 
	C136.357407,162.306168 136.435074,161.538849 136.512726,160.771530 
z"/>
<path fill="#F1F2F1" opacity="1.000000" stroke="none" 
	d="
M181.579376,172.910248 
	C180.315552,166.250137 177.052658,159.774994 179.611511,151.508911 
	C184.164032,157.080551 189.593430,158.055664 195.338013,156.655136 
	C197.953140,156.017548 200.767517,154.710114 202.656479,152.855850 
	C208.682297,146.940720 209.409210,140.131149 205.201874,133.498627 
	C206.692566,131.646271 208.217102,129.751846 209.783859,127.804955 
	C217.887817,141.614410 216.581039,154.444473 203.965286,167.981644 
	C202.119690,169.962036 199.992737,172.257431 204.623611,174.387619 
	C209.154968,176.472031 208.604050,180.049988 204.582321,182.944595 
	C201.964645,184.828690 199.394119,187.620697 198.266144,190.566437 
	C195.435898,197.957642 193.437439,205.667343 190.894562,213.934830 
	C189.767899,213.780212 187.757065,213.504272 185.093262,213.138718 
	C186.985794,205.862808 188.728165,199.164200 190.322021,192.019806 
	C190.173508,191.574005 190.268936,191.587021 190.472870,191.148560 
	C189.849731,188.038864 189.022675,185.367645 188.107239,182.376312 
	C186.134583,179.555374 184.250305,177.054535 182.349258,174.312378 
	C182.081467,173.684128 181.830414,173.297180 181.579376,172.910248 
z"/>
<path fill="#E1E1E1" opacity="1.000000" stroke="none" 
	d="
M147.761414,76.786102 
	C138.155746,81.454544 131.102966,75.091171 123.397690,71.738808 
	C132.652176,69.256905 141.070908,73.558891 149.978104,75.554428 
	C149.362167,75.926979 148.746231,76.299530 147.761414,76.786102 
z"/>
<path fill="#DEDEDE" opacity="1.000000" stroke="none" 
	d="
M61.023872,66.297043 
	C60.476189,67.523605 59.803974,69.044647 58.934525,69.167282 
	C50.758247,70.320480 43.336494,68.493698 36.897518,63.352108 
	C37.007053,62.727398 37.116592,62.102688 37.226128,61.477978 
	C45.086697,62.966248 52.947269,64.454521 61.023872,66.297043 
z"/>
<path fill="#2B132E" opacity="1.000000" stroke="none" 
	d="
M181.164383,172.903625 
	C181.830414,173.297180 182.081467,173.684128 182.137085,174.652405 
	C181.543823,175.580551 181.145996,175.927338 180.456375,176.081039 
	C178.428894,175.782578 176.693192,175.677231 174.614960,175.547134 
	C173.822800,175.600784 173.373169,175.679169 172.494781,175.637451 
	C169.407333,175.616272 166.748642,175.715179 163.809357,175.704559 
	C162.725388,175.529358 161.922058,175.463669 160.856583,175.075226 
	C157.384216,174.792847 154.173965,174.833206 150.732407,174.932510 
	C150.501083,174.991470 150.063126,175.181595 149.747864,175.081604 
	C148.641693,175.351898 147.850769,175.722168 147.059860,176.092438 
	C147.011047,175.240128 146.962234,174.387833 146.902161,173.215515 
	C155.006760,172.334427 163.122589,171.773331 171.643478,171.314270 
	C173.055389,171.779984 174.037018,172.320862 175.074615,172.468552 
	C176.948578,172.735291 178.855957,172.767090 181.164383,172.903625 
z"/>
<path fill="#D3D3D3" opacity="1.000000" stroke="none" 
	d="
M70.800362,40.947453 
	C71.645821,41.443085 72.724518,42.173916 72.927994,43.097561 
	C74.083054,48.340649 75.028854,53.629833 76.176720,59.581902 
	C75.013474,59.211357 72.637657,58.953373 72.545341,58.347488 
	C71.683327,52.689590 71.213089,46.972000 70.800362,40.947453 
z"/>
<path fill="#A458A5" opacity="1.000000" stroke="none" 
	d="
M183.862747,191.829086 
	C182.302933,192.460785 180.743134,193.092484 178.689545,193.924164 
	C176.681152,196.620911 183.166565,201.994415 175.615128,205.016022 
	C175.288528,201.564056 175.024689,198.775421 174.722733,195.583984 
	C173.477524,195.583984 172.057648,195.583984 170.313889,195.159027 
	C170.011246,194.555878 170.032471,194.377716 170.376129,194.135345 
	C171.135788,194.036057 171.573029,194.000961 172.336670,193.959396 
	C174.922302,193.281876 178.243851,193.996796 177.934860,189.945602 
	C177.965347,189.955765 177.935318,189.898941 178.317902,189.927063 
	C180.398514,190.274979 182.096527,190.594757 183.799561,191.144089 
	C183.804596,191.373627 183.862747,191.829086 183.862747,191.829086 
z"/>
<path fill="#CFCFCF" opacity="1.000000" stroke="none" 
	d="
M110.857193,57.136665 
	C110.533516,62.365967 109.560730,62.822830 104.750961,60.297951 
	C105.922600,56.336769 107.098030,52.362762 108.273460,48.388756 
	C108.785614,48.389275 109.297760,48.389793 109.809906,48.390316 
	C110.136543,51.179192 110.463173,53.968071 110.857193,57.136665 
z"/>
<path fill="#B8B8B8" opacity="1.000000" stroke="none" 
	d="
M55.930481,60.946934 
	C49.855141,60.484425 43.779800,60.021919 37.704460,59.559410 
	C37.739204,59.048515 37.773949,58.537621 37.808689,58.026726 
	C43.687332,54.159370 49.484905,56.989216 55.650143,59.302269 
	C55.981483,60.101997 55.955982,60.524464 55.930481,60.946934 
z"/>
<path fill="#C258C9" opacity="1.000000" stroke="none" 
	d="
M152.840714,195.540085 
	C152.716965,195.851212 152.593216,196.162323 152.202576,196.914459 
	C151.935699,197.355469 151.887085,197.412079 151.887085,197.412079 
	C151.887085,197.412079 151.878937,197.700653 151.386780,197.819336 
	C148.391510,198.276764 147.552612,197.106735 148.259995,194.826721 
	C148.733917,193.299149 149.462982,191.850708 150.077881,190.366852 
	C150.077866,190.366852 150.092896,190.102280 150.384369,189.940781 
	C150.881714,189.567719 150.952057,189.317932 150.886917,189.029953 
	C150.952988,188.458374 151.019058,187.886780 151.230820,186.716125 
	C151.376495,186.117050 151.520096,185.754517 151.804169,185.933350 
	C154.404877,187.713821 156.721512,189.315445 158.751740,190.909271 
	C157.732742,190.959412 157.000153,191.017349 156.267563,191.075302 
	C156.099747,191.263016 155.931931,191.450729 155.432358,191.873764 
	C155.100586,192.109100 155.054565,192.214844 155.054565,192.214844 
	C154.953659,192.395157 154.852768,192.575485 154.208405,193.032654 
	C153.390198,194.053040 153.115463,194.796570 152.840714,195.540085 
z"/>
<path fill="#A458A5" opacity="1.000000" stroke="none" 
	d="
M149.799149,190.495819 
	C149.462982,191.850708 148.733917,193.299149 148.259995,194.826721 
	C147.552612,197.106735 148.391510,198.276764 151.266495,197.899139 
	C150.571045,198.702408 149.503723,199.544571 148.436386,200.386734 
	C147.824783,198.981750 146.521835,197.444016 146.760269,196.202255 
	C147.137268,194.238831 148.547455,192.473801 149.799149,190.495819 
z"/>
<path fill="#C258C9" opacity="1.000000" stroke="none" 
	d="
M147.006516,176.317627 
	C147.850769,175.722168 148.641693,175.351898 149.696579,175.433914 
	C147.777222,179.211731 148.316238,182.206619 150.692062,184.920746 
	C148.902313,184.600113 147.479935,184.292511 146.020035,183.585419 
	C146.252747,181.116318 146.522980,179.046722 146.793213,176.977127 
	C146.793228,176.977127 146.953171,176.542816 147.006516,176.317627 
z"/>
<path fill="#C258C9" opacity="1.000000" stroke="none" 
	d="
M170.053680,194.199554 
	C170.032471,194.377716 170.011246,194.555878 169.960999,195.001617 
	C167.562485,195.275696 165.192963,195.282227 162.259674,194.894867 
	C161.113297,194.034332 160.530685,193.567703 160.400681,193.072037 
	C163.920090,193.428528 166.986877,193.814041 170.053680,194.199554 
z"/>
<path fill="#A458A5" opacity="1.000000" stroke="none" 
	d="
M159.948059,193.101059 
	C160.530685,193.567703 161.113297,194.034332 161.837067,194.745926 
	C160.236618,193.863571 158.495010,192.736252 156.510483,191.342117 
	C157.000153,191.017349 157.732742,190.959412 158.960693,191.130493 
	C159.620056,191.940033 159.784058,192.520554 159.948059,193.101059 
z"/>
<path fill="#573058" opacity="1.000000" stroke="none" 
	d="
M184.321671,191.824402 
	C183.862747,191.829086 183.804596,191.373627 184.017639,190.963654 
	C184.754379,189.655396 185.278061,188.757111 186.097107,187.874557 
	C187.684616,189.122528 188.976776,190.354782 190.268936,191.587021 
	C190.268936,191.587021 190.173508,191.574005 190.221466,191.582382 
	C188.439804,191.667084 186.610199,191.743393 184.321671,191.824402 
z"/>
<path fill="#2B132E" opacity="1.000000" stroke="none" 
	d="
M146.516312,177.170822 
	C146.522980,179.046722 146.252747,181.116318 145.953720,183.852356 
	C145.888428,184.698486 145.851929,184.878174 145.815445,185.057861 
	C142.484650,182.302078 145.065353,179.872055 146.516312,177.170822 
z"/>
<path fill="#A458A5" opacity="1.000000" stroke="none" 
	d="
M146.014038,185.366760 
	C145.851929,184.878174 145.888428,184.698486 145.991241,184.251846 
	C147.479935,184.292511 148.902313,184.600113 150.795868,185.132477 
	C151.267029,185.357224 151.520096,185.754517 151.520096,185.754517 
	C151.520096,185.754517 151.376495,186.117050 151.284241,186.287750 
	C149.532196,186.197510 147.872421,185.936584 146.014038,185.366760 
z"/>
<path fill="#353535" opacity="1.000000" stroke="none" 
	d="
M56.212456,61.112835 
	C55.955982,60.524464 55.981483,60.101997 55.967773,59.363029 
	C56.924026,59.837055 57.938927,60.606190 58.877514,61.459278 
	C58.951454,61.526482 58.494461,62.177826 58.284214,62.557693 
	C57.687618,62.131374 57.091022,61.705055 56.212456,61.112835 
z"/>
<path fill="#6D606E" opacity="1.000000" stroke="none" 
	d="
M134.959808,166.127228 
	C135.369827,166.527603 135.550003,167.058975 135.730072,167.876007 
	C135.396622,167.527191 135.063293,166.892700 134.959808,166.127228 
z"/>
<path fill="#6D606E" opacity="1.000000" stroke="none" 
	d="
M136.233078,160.915527 
	C136.435074,161.538849 136.357407,162.306168 136.032166,163.249634 
	C135.840866,162.637024 135.897141,161.848282 136.233078,160.915527 
z"/>
<path fill="#A458A5" opacity="1.000000" stroke="none" 
	d="
M153.083527,195.380051 
	C153.115463,194.796570 153.390198,194.053040 153.954971,193.211090 
	C153.938766,193.815125 153.632553,194.517563 153.083527,195.380051 
z"/>
<path fill="#A458A5" opacity="1.000000" stroke="none" 
	d="
M150.707275,189.127594 
	C150.952057,189.317932 150.881714,189.567719 150.502106,189.879974 
	C150.240372,189.688019 150.306793,189.436218 150.707275,189.127594 
z"/>
<path fill="#A458A5" opacity="1.000000" stroke="none" 
	d="
M155.140381,192.301697 
	C155.054565,192.214844 155.100586,192.109100 155.124084,192.091980 
	C155.147598,192.074844 155.226212,192.388565 155.140381,192.301697 
z"/>
<path fill="#A458A5" opacity="1.000000" stroke="none" 
	d="
M151.991867,197.452454 
	C151.887085,197.412079 151.935699,197.355469 151.935394,197.339752 
	C151.935104,197.324020 152.096649,197.492828 151.991867,197.452454 
z"/>
<path fill="#161616" opacity="1.000000" stroke="none" 
	d="
M97.872574,102.092499 
	C94.378998,99.897652 93.767342,97.229538 96.308380,94.522812 
	C99.152603,91.493149 102.002663,93.185265 104.553596,95.309120 
	C107.121880,97.447395 107.628967,99.866066 105.250130,102.511131 
	C102.820145,105.213066 100.518028,103.590431 97.872574,102.092499 
z"/>
<path fill="#2D2D2D" opacity="1.000000" stroke="none" 
	d="
M82.230545,85.881363 
	C81.231430,88.864410 79.454285,89.801674 77.370438,87.777184 
	C76.675789,87.102318 76.693207,84.357193 77.345528,83.884888 
	C79.274055,82.488503 81.424706,82.492271 82.230545,85.881363 
z"/>
<path fill="#573058" opacity="1.000000" stroke="none" 
	d="
M180.748169,176.274139 
	C181.145996,175.927338 181.543823,175.580551 182.153839,174.893723 
	C184.250305,177.054535 186.134583,179.555374 187.743622,182.589752 
	C187.089645,183.537323 186.710938,183.951370 186.062836,184.198883 
	C184.111679,181.446259 182.429932,178.860199 180.748169,176.274139 
z"/>
<path fill="#010101" opacity="1.000000" stroke="none" 
	d="
M186.332230,184.365417 
	C186.710938,183.951370 187.089645,183.537323 187.832001,182.909851 
	C189.022675,185.367645 189.849731,188.038864 190.472870,191.148560 
	C188.976776,190.354782 187.684616,189.122528 186.304962,187.560852 
	C186.255722,186.276077 186.293976,185.320755 186.332230,184.365417 
z"/>
<path fill="#F052FA" opacity="1.000000" stroke="none" 
	d="
M151.804169,185.933350 
	C151.520096,185.754517 151.267029,185.357224 151.163223,185.145508 
	C148.316238,182.206619 147.777222,179.211731 150.011841,175.533905 
	C150.063126,175.181595 150.501083,174.991470 151.071320,175.087708 
	C152.376984,175.294067 153.112411,175.404190 154.024124,175.815552 
	C156.470428,176.083847 158.740448,176.050888 161.095490,175.873077 
	C161.180542,175.728210 161.118713,175.397980 161.118713,175.397980 
	C161.922058,175.463669 162.725388,175.529358 164.040924,176.026306 
	C167.343262,176.224228 170.133408,175.990891 172.923538,175.757538 
	C173.373169,175.679169 173.822800,175.600784 174.789429,175.881348 
	C179.740280,177.147110 181.664108,180.484985 182.952591,184.319305 
	C184.516510,188.973328 179.079727,187.118073 178.081604,189.426331 
	C178.016525,189.576813 177.983322,189.741074 177.935318,189.898941 
	C177.935318,189.898941 177.965347,189.955765 177.603333,190.038406 
	C175.497635,191.402664 173.753952,192.684280 172.010254,193.965881 
	C171.573029,194.000961 171.135788,194.036057 170.376129,194.135345 
	C166.986877,193.814041 163.920090,193.428528 160.400665,193.072037 
	C159.784058,192.520554 159.620056,191.940033 159.247101,191.138290 
	C156.721512,189.315445 154.404877,187.713821 151.804169,185.933350 
z"/>
<path fill="#C258C9" opacity="1.000000" stroke="none" 
	d="
M178.317902,189.927063 
	C177.983322,189.741074 178.016525,189.576813 178.081604,189.426331 
	C179.079727,187.118073 184.516510,188.973328 182.952591,184.319305 
	C181.664108,180.484985 179.740280,177.147110 175.131958,175.906067 
	C176.693192,175.677231 178.428894,175.782578 180.456375,176.081039 
	C182.429932,178.860199 184.111679,181.446259 186.062836,184.198868 
	C186.293976,185.320755 186.255722,186.276077 186.009613,187.545120 
	C185.278061,188.757111 184.754379,189.655396 184.012604,190.734100 
	C182.096527,190.594757 180.398514,190.274979 178.317902,189.927063 
z"/>
<path fill="#721D77" opacity="1.000000" stroke="none" 
	d="
M160.856583,175.075241 
	C161.118713,175.397980 161.180542,175.728210 160.705200,175.786652 
	C158.102509,175.734833 155.975174,175.624573 153.847824,175.514313 
	C153.112411,175.404190 152.376984,175.294067 151.302643,175.028748 
	C154.173965,174.833206 157.384216,174.792847 160.856583,175.075241 
z"/>
<path fill="#C258C9" opacity="1.000000" stroke="none" 
	d="
M172.494781,175.637451 
	C170.133408,175.990891 167.343262,176.224228 164.321548,176.135834 
	C166.748642,175.715179 169.407333,175.616272 172.494781,175.637451 
z"/>
<path fill="#C258C9" opacity="1.000000" stroke="none" 
	d="
M172.336670,193.959412 
	C173.753952,192.684280 175.497635,191.402664 177.572845,190.028244 
	C178.243851,193.996796 174.922302,193.281876 172.336670,193.959412 
z"/>
<path fill="#C258C9" opacity="1.000000" stroke="none" 
	d="
M154.024124,175.815552 
	C155.975174,175.624573 158.102509,175.734833 160.620148,175.931519 
	C158.740448,176.050888 156.470428,176.083847 154.024124,175.815552 
z"/>
</svg>